<svg width="348" height="299" viewBox="0 0 348 299" fill="none" xmlns="http://www.w3.org/2000/svg">
<g clip-path="url(#clip0)">
<path d="M27.9381 82.608C43.3679 82.608 55.8762 70.1023 55.8762 54.6758C55.8762 39.2493 43.3679 26.7436 27.9381 26.7436C12.5083 26.7436 0 39.2493 0 54.6758C0 70.1023 12.5083 82.608 27.9381 82.608Z" fill="#FF6584"/>
<path d="M324.129 234.378C324.002 239.132 323.206 243.845 321.763 248.378C321.73 248.483 321.696 248.586 321.661 248.692H312.83C312.84 248.597 312.849 248.492 312.859 248.378C313.447 241.61 316.842 200.42 312.783 193.376C313.138 193.947 324.814 212.874 324.129 234.378Z" fill="#E6E6E6"/>
<path d="M323.467 248.378C323.393 248.483 323.316 248.588 323.238 248.692H316.613C316.663 248.602 316.721 248.497 316.789 248.378C317.883 246.403 321.123 240.498 324.13 234.378C327.361 227.8 330.326 220.972 330.076 218.502C330.153 219.059 332.389 236.048 323.467 248.378Z" fill="#E6E6E6"/>
<path d="M348 248.09H94.0691V248.92H348V248.09Z" fill="#E6E6E6"/>
<path d="M256.609 274.022L257.842 263.848L292.69 254.907L288.681 242.882C291.473 234.874 296.376 230.948 305.334 234.866L320.741 244.435C322.239 245.365 323.459 246.681 324.273 248.243C325.088 249.806 325.468 251.559 325.373 253.319C325.279 255.086 324.709 256.795 323.724 258.265C322.739 259.735 321.375 260.912 319.777 261.671C302.528 269.846 280.544 272.974 256.609 274.022Z" fill="#FFB8B8"/>
<path d="M258.767 277.106L247.974 275.564L237.878 277.624C237.26 277.75 236.621 277.741 236.007 277.596C235.392 277.451 234.817 277.175 234.319 276.786C233.822 276.397 233.416 275.905 233.127 275.343C232.839 274.782 232.676 274.165 232.65 273.534C232.62 272.829 232.763 272.127 233.065 271.489C233.366 270.851 233.819 270.295 234.383 269.871L250.202 257.954C251.559 256.932 253.236 256.427 254.931 256.53C256.627 256.632 258.23 257.336 259.454 258.514L263.393 262.306C260.574 264.055 258.478 266.678 257.225 270.323C259.934 271.812 260.448 274.073 258.767 277.106Z" fill="#2F2E41"/>
<path d="M269.076 170.284C274.589 170.284 279.058 165.816 279.058 160.304C279.058 154.792 274.589 150.324 269.076 150.324C263.563 150.324 259.094 154.792 259.094 160.304C259.094 165.816 263.563 170.284 269.076 170.284Z" fill="#FFB8B8"/>
<path d="M284.672 179.985L262.314 189.388C264.131 180.267 265.036 171.957 262.314 166.881L276.654 165.185C275.942 169.086 279.57 174.311 284.672 179.985Z" fill="#FFB8B8"/>
<path d="M246.74 273.714L238.414 273.097C233.313 251.831 230.701 231.73 231.841 213.385C232.002 210.707 233.195 208.196 235.168 206.378C237.142 204.56 239.743 203.576 242.425 203.634C245.003 203.693 247.467 204.71 249.335 206.487L260.102 216.732C264.904 221.265 268.632 226.813 271.012 232.972C274.062 240.957 272.967 245.434 265.687 244.674C261.138 244.167 256.954 241.943 253.99 238.456L246.123 229.316L246.74 273.714Z" fill="#FFB8B8"/>
<path d="M240.292 298.985C239.201 298.914 238.141 298.592 237.194 298.045C236.246 297.499 235.438 296.741 234.831 295.832C234.224 294.922 233.834 293.885 233.692 292.801C233.551 291.717 233.66 290.615 234.013 289.58L235.638 284.814L236.872 272.789C238.772 268.913 241.463 269.492 244.582 272.481C246.564 272.286 246.99 270.304 246.74 267.548L252.992 275.962C253.527 276.682 253.859 277.532 253.954 278.424C254.048 279.316 253.902 280.217 253.53 281.033L247.238 294.832C246.638 296.147 245.653 297.249 244.412 297.99C243.172 298.732 241.735 299.079 240.292 298.985Z" fill="#2F2E41"/>
<path d="M319.057 243.345C307.646 249.819 304.07 250.007 292.69 254.598L282.821 249.048C271.232 253.333 263.102 247.46 254.296 238.72C260.058 229.123 257.51 216.653 261.08 216.829L303.792 230.241L305.642 234.866L319.057 243.345Z" fill="#2F2E41"/>
<path d="M305.334 233.324C290.253 239.85 274.015 232.941 260.155 217.754L250.978 180.699C250.87 180.291 250.846 179.865 250.908 179.447C250.971 179.03 251.118 178.629 251.342 178.271C251.565 177.912 251.859 177.603 252.206 177.363C252.554 177.122 252.947 176.955 253.361 176.873L264.01 174.743L269.252 183.068L279.738 173.818L290.873 177.458C292.353 177.942 293.674 178.819 294.695 179.995C295.716 181.171 296.398 182.603 296.668 184.137L305.334 233.324Z" fill="#E3E1E1"/>
<path opacity="0.2" d="M281.379 264.737C280.565 264.427 279.838 263.927 279.257 263.277C278.677 262.628 278.261 261.849 278.044 261.006C277.827 260.163 277.815 259.279 278.01 258.431C278.205 257.582 278.601 256.793 279.164 256.128L286.214 247.815L291.148 250.59L288.607 260.946C288.423 261.696 288.082 262.398 287.606 263.005C287.131 263.613 286.531 264.112 285.848 264.471C285.164 264.829 284.413 265.038 283.642 265.084C282.872 265.13 282.1 265.012 281.379 264.737Z" fill="black"/>
<path d="M281.379 263.504C280.565 263.194 279.838 262.694 279.257 262.044C278.677 261.395 278.261 260.616 278.044 259.773C277.827 258.929 277.815 258.046 278.01 257.198C278.205 256.349 278.601 255.559 279.164 254.895L286.214 246.582L291.148 249.357L288.607 259.713C288.423 260.463 288.082 261.164 287.606 261.772C287.131 262.38 286.531 262.879 285.848 263.238C285.164 263.596 284.413 263.805 283.642 263.851C282.872 263.897 282.1 263.779 281.379 263.504Z" fill="#FFB8B8"/>
<path d="M292.381 251.823L284.98 246.89L295.774 218.216L291.765 177.826L295.422 180.112C297.384 181.338 299.077 182.95 300.398 184.851C301.719 186.751 302.64 188.9 303.105 191.166L309.034 220.066C306.44 233.387 302.115 245.108 292.381 251.823Z" fill="#E3E1E1"/>
<path opacity="0.2" d="M287.91 206.038L291.611 224.537L288.567 235.356L287.91 206.038Z" fill="black"/>
<path d="M259.314 159.448C259.314 159.448 253.562 140.627 271.142 144.574C273.869 145.187 276.225 146.771 278.099 148.844C278.267 149.025 278.472 149.168 278.701 149.261C278.93 149.355 279.176 149.397 279.423 149.385C282.231 149.385 283.966 159.418 278.349 163.831C278.349 163.831 279.495 157.893 277.412 155.87C277.038 155.528 276.724 155.124 276.485 154.677C275.129 151.942 270.571 151.045 267.428 151.277C265.823 151.396 265.683 154.194 263.906 153.803C259.864 152.914 258.574 157.596 259.314 159.448Z" fill="#2F2E41"/>
<path d="M277.009 187.384L276.892 188.236L276.174 193.494L274.998 202.105L274.703 204.261C274.681 204.426 274.599 204.577 274.474 204.686C274.349 204.795 274.188 204.855 274.022 204.855H266.177C266.011 204.855 265.851 204.796 265.726 204.687C265.601 204.578 265.519 204.427 265.496 204.263L265.197 202.105L264 193.494L263.269 188.232L263.152 187.385C263.138 187.288 263.146 187.189 263.174 187.095C263.202 187.001 263.25 186.914 263.314 186.84C263.378 186.766 263.458 186.706 263.547 186.666C263.637 186.625 263.734 186.604 263.832 186.604H276.328C276.426 186.604 276.523 186.625 276.612 186.665C276.701 186.706 276.781 186.765 276.846 186.839C276.91 186.913 276.958 187 276.986 187.094C277.014 187.188 277.022 187.287 277.009 187.384Z" fill="#E6E6E6"/>
<path d="M264.66 184.322H275.541C275.631 184.322 275.72 184.34 275.804 184.375C275.887 184.409 275.963 184.46 276.026 184.524C276.09 184.587 276.141 184.663 276.175 184.746C276.21 184.83 276.228 184.919 276.228 185.009V185.917C276.228 186.099 276.155 186.274 276.026 186.403C275.898 186.531 275.723 186.604 275.541 186.604H264.66C264.478 186.604 264.303 186.531 264.174 186.403C264.045 186.274 263.973 186.099 263.973 185.917V185.009C263.973 184.919 263.991 184.83 264.025 184.746C264.06 184.663 264.11 184.587 264.174 184.524C264.238 184.46 264.314 184.409 264.397 184.375C264.48 184.34 264.57 184.322 264.66 184.322Z" fill="#3F3D56"/>
<path d="M277.992 187.745C272.746 188.317 267.454 188.317 262.209 187.745C262.119 187.745 262.029 187.727 261.946 187.692C261.863 187.658 261.787 187.607 261.723 187.543C261.659 187.48 261.609 187.404 261.574 187.321C261.54 187.237 261.522 187.148 261.522 187.058V186.15C261.522 186.06 261.54 185.971 261.574 185.887C261.609 185.804 261.659 185.728 261.723 185.664C261.787 185.601 261.863 185.55 261.946 185.515C262.029 185.481 262.119 185.463 262.209 185.463C267.45 186.107 272.75 186.107 277.992 185.463C278.174 185.463 278.349 185.536 278.477 185.664C278.606 185.793 278.679 185.968 278.679 186.15V187.058C278.679 187.24 278.606 187.415 278.477 187.543C278.349 187.672 278.174 187.745 277.992 187.745Z" fill="#3F3D56"/>
<path d="M269.782 198.287C271.42 198.287 272.747 196.959 272.747 195.322C272.747 193.684 271.42 192.357 269.782 192.357C268.144 192.357 266.816 193.684 266.816 195.322C266.816 196.959 268.144 198.287 269.782 198.287Z" fill="white"/>
<path d="M277.406 201.56C277.496 202.426 277.377 203.301 277.059 204.111C276.741 204.922 276.233 205.645 275.578 206.218C274.923 206.792 274.139 207.2 273.294 207.409C272.448 207.618 271.565 207.62 270.718 207.417L260.118 204.873L260.371 199.218L270.763 196.818C271.515 196.644 272.296 196.632 273.052 196.783C273.809 196.933 274.526 197.243 275.154 197.692C275.782 198.14 276.307 198.717 276.696 199.383C277.084 200.05 277.326 200.792 277.406 201.56Z" fill="#FFB8B8"/>
<path d="M263.085 205.884L234.478 206.599C233.446 206.624 232.42 206.425 231.472 206.014C230.524 205.603 229.678 204.99 228.991 204.218C228.305 203.446 227.795 202.534 227.497 201.546C227.199 200.557 227.121 199.515 227.267 198.492C227.496 196.89 228.265 195.415 229.447 194.309L242.915 181.712C245.413 179.376 248.526 177.8 251.888 177.17L256.609 176.285L259.384 197.251L243.348 195.401L262.16 197.559L263.085 205.884Z" fill="#E3E1E1"/>
<path d="M225.398 267.405H152.367C151.718 267.405 151.095 267.147 150.636 266.688C150.176 266.229 149.918 265.606 149.918 264.957C176.392 261.881 202.368 261.881 227.847 264.957C227.847 265.606 227.589 266.229 227.13 266.688C226.67 267.147 226.048 267.405 225.398 267.405Z" fill="#2F2E41"/>
<path d="M227.847 265.101L149.918 264.957L158.95 249.763L158.993 249.691V216.207C158.993 215.8 159.073 215.398 159.229 215.022C159.384 214.647 159.612 214.306 159.9 214.018C160.187 213.731 160.528 213.503 160.904 213.347C161.28 213.192 161.682 213.112 162.089 213.112H215.244C215.651 213.112 216.053 213.192 216.429 213.347C216.805 213.503 217.146 213.731 217.433 214.018C217.721 214.306 217.949 214.647 218.104 215.022C218.26 215.398 218.34 215.8 218.34 216.207V249.922L227.847 265.101Z" fill="#3F3D56"/>
<path d="M162.018 215.272C161.751 215.272 161.495 215.379 161.305 215.568C161.116 215.757 161.01 216.013 161.01 216.28V246.811C161.01 247.078 161.116 247.335 161.306 247.524C161.495 247.713 161.751 247.819 162.018 247.819H215.747C216.014 247.819 216.271 247.713 216.46 247.524C216.649 247.335 216.755 247.078 216.755 246.811V216.28C216.755 216.013 216.649 215.757 216.46 215.568C216.271 215.379 216.014 215.272 215.747 215.272L162.018 215.272Z" fill="white"/>
<path d="M162.371 251.852C162.289 251.852 162.208 251.876 162.138 251.92C162.069 251.965 162.013 252.028 161.979 252.103L159.196 258.152C159.165 258.218 159.152 258.29 159.157 258.362C159.162 258.435 159.185 258.504 159.224 258.565C159.263 258.626 159.317 258.677 159.381 258.711C159.444 258.746 159.516 258.764 159.588 258.764H218.112C218.185 258.764 218.258 258.746 218.322 258.71C218.387 258.674 218.441 258.622 218.479 258.56C218.518 258.497 218.54 258.425 218.543 258.352C218.547 258.278 218.531 258.205 218.498 258.139L215.473 252.091C215.438 252.019 215.382 251.958 215.314 251.916C215.246 251.874 215.167 251.852 215.087 251.852L162.371 251.852Z" fill="#2F2E41"/>
<path d="M188.667 214.768C189.025 214.768 189.315 214.478 189.315 214.12C189.315 213.762 189.025 213.472 188.667 213.472C188.309 213.472 188.018 213.762 188.018 214.12C188.018 214.478 188.309 214.768 188.667 214.768Z" fill="white"/>
<path d="M182.914 259.917C182.819 259.917 182.727 259.948 182.651 260.006C182.576 260.064 182.522 260.145 182.497 260.236L181.799 262.828C181.782 262.893 181.779 262.96 181.792 263.025C181.805 263.09 181.833 263.151 181.873 263.204C181.913 263.256 181.965 263.299 182.025 263.328C182.084 263.358 182.15 263.373 182.216 263.373H195.492C195.561 263.373 195.629 263.356 195.69 263.325C195.751 263.293 195.804 263.248 195.844 263.191C195.884 263.135 195.91 263.07 195.919 263.002C195.929 262.934 195.923 262.865 195.9 262.8L195.003 260.207C194.973 260.122 194.918 260.049 194.845 259.997C194.772 259.945 194.684 259.917 194.594 259.917H182.914Z" fill="#2F2E41"/>
<path d="M218.34 249.187V249.764H158.95L158.994 249.691V249.187H218.34Z" fill="#2F2E41"/>
<path d="M133.787 229.974C133.95 236.069 134.971 242.109 136.82 247.918C136.862 248.053 136.906 248.186 136.951 248.321H148.269C148.257 248.2 148.245 248.065 148.233 247.918C147.478 239.244 143.127 186.45 148.33 177.422C147.875 178.154 132.909 202.413 133.787 229.974Z" fill="#E6E6E6"/>
<path d="M134.636 247.919C134.731 248.053 134.829 248.188 134.93 248.321H143.421C143.357 248.206 143.282 248.071 143.196 247.919C141.793 245.387 137.641 237.82 133.787 229.974C129.645 221.544 125.845 212.793 126.165 209.626C126.067 210.34 123.201 232.115 134.636 247.919Z" fill="#E6E6E6"/>
<path d="M153.787 64.9181L158.388 61.2383C154.814 60.844 153.345 62.7933 152.744 64.3361C149.951 63.1767 146.91 64.6962 146.91 64.6962L156.118 68.038C155.653 66.7976 154.845 65.7153 153.787 64.9181Z" fill="#3F3D56"/>
<path d="M292.386 45.9772L296.988 42.2975C293.413 41.9032 291.944 43.8524 291.343 45.3953C288.55 44.2358 285.51 45.7553 285.51 45.7553L294.717 49.0972C294.253 47.8568 293.444 46.7745 292.386 45.9772Z" fill="#3F3D56"/>
<path d="M265.888 94.8088L270.49 91.1291C266.915 90.7348 265.446 92.684 264.845 94.2268C262.052 93.0674 259.012 94.5869 259.012 94.5869L268.219 97.9287C267.755 96.6883 266.946 95.6061 265.888 94.8088Z" fill="#3F3D56"/>
<path d="M85.2507 167.158C107.833 163.087 119.406 122.442 111.098 76.3734C102.79 30.3051 77.7484 -3.74061 55.1657 0.33015C32.5829 4.40091 21.0106 45.0466 29.3184 91.1149C37.6261 137.183 62.6679 171.229 85.2507 167.158Z" fill="#E6E6E6"/>
<path d="M63.4034 67.8795C67.058 77.815 70.3101 87.8858 73.1598 98.092C76.0041 108.289 78.4371 118.588 80.4588 128.99C82.4804 139.389 84.0831 149.858 85.267 160.396C86.4451 170.916 87.2021 181.472 87.5378 192.064C87.8715 202.644 87.7794 213.226 87.2614 223.81C87.1976 225.107 87.1274 226.404 87.0507 227.7C86.9726 229.027 89.0383 229.023 89.1161 227.7C89.7404 217.082 89.9362 206.451 89.7036 195.807C89.4698 185.224 88.8125 174.662 87.7317 164.12C86.6483 153.548 85.1475 143.029 83.2291 132.563C81.3097 122.102 78.9727 111.729 76.2182 101.444C73.4655 91.1711 70.3003 81.0204 66.7228 70.9921C66.2863 69.7694 65.8437 68.5488 65.3951 67.3305C64.9401 66.0936 62.9432 66.6282 63.4034 67.8795V67.8795Z" fill="#3F3D56"/>
<path d="M77.6352 106.964L86.7859 86.65L89.365 80.9246C89.4951 80.6863 89.5292 80.4073 89.4604 80.1447C89.3915 79.8821 89.2248 79.6557 88.9945 79.5119C88.7575 79.3758 88.4765 79.3383 88.2121 79.4077C87.9478 79.477 87.7213 79.6475 87.5816 79.8823L78.4309 100.196L75.8518 105.921C75.7217 106.16 75.6876 106.439 75.7564 106.701C75.8253 106.964 75.992 107.19 76.2223 107.334C76.4593 107.47 76.7403 107.508 77.0047 107.438C77.269 107.369 77.4955 107.198 77.6352 106.964H77.6352Z" fill="#3F3D56"/>
<path d="M79.6572 120.844L58.7921 113.022L52.9112 110.818C52.6471 110.747 52.366 110.783 52.1283 110.918C51.8906 111.053 51.7156 111.276 51.6408 111.539C51.574 111.803 51.6117 112.082 51.7461 112.319C51.8805 112.556 52.1012 112.731 52.3621 112.809L73.2272 120.63L79.1081 122.835C79.3721 122.905 79.6533 122.869 79.8909 122.734C80.1286 122.599 80.3037 122.376 80.3784 122.114C80.4453 121.85 80.4076 121.57 80.2732 121.334C80.1387 121.097 79.918 120.921 79.6572 120.844V120.844Z" fill="#3F3D56"/>
<path d="M63.4093 231.64C63.4093 231.64 88.5387 223.38 111.947 231.64H63.4093Z" fill="#E6E6E6"/>
<path d="M175.853 227.726C180.832 227.674 185.811 227.585 190.791 227.518C192.451 227.495 194.111 227.475 195.771 227.458C197.201 227.444 197.205 225.22 195.771 225.235C190.791 225.287 185.812 225.376 180.833 225.443C179.173 225.466 177.513 225.486 175.853 225.502C174.422 225.517 174.419 227.741 175.853 227.726Z" fill="#E3E1E1"/>
<path d="M175.853 232.915L195.978 232.706L201.702 232.647C203.132 232.632 203.136 230.409 201.702 230.423L181.576 230.632L175.853 230.691C174.422 230.706 174.419 232.93 175.853 232.915Z" fill="#E3E1E1"/>
<path d="M175.853 238.104L195.978 237.895L201.702 237.836C203.132 237.821 203.136 235.597 201.702 235.612L181.576 235.821L175.853 235.88C174.422 235.895 174.419 238.119 175.853 238.104Z" fill="#E3E1E1"/>
</g>
<defs>
<clipPath id="clip0">
<rect width="348" height="299" fill="white"/>
</clipPath>
</defs>
</svg>
